<mxfile host="app.diagrams.net" modified="2022-05-24T14:46:20.504Z" agent="5.0 (X11; Linux x86_64) AppleWebKit/537.36 (KHTML, like Gecko) Chrome/101.0.4951.64 Safari/537.36" etag="q6LFHEliFb-qHCc-lWYA" version="18.0.5" type="github">
  <diagram id="p6t1xGRjiH8hZAtJBaEH" name="Page-1">
    <mxGraphModel dx="1355" dy="804" grid="1" gridSize="10" guides="1" tooltips="1" connect="1" arrows="1" fold="1" page="1" pageScale="1" pageWidth="827" pageHeight="1169" math="0" shadow="0">
      <root>
        <mxCell id="0" />
        <mxCell id="1" parent="0" />
        <mxCell id="fkNfoiBsVdpP70R4Vi2L-1" value="Enjeu" style="swimlane;fontStyle=1;align=center;verticalAlign=top;childLayout=stackLayout;horizontal=1;startSize=26;horizontalStack=0;resizeParent=1;resizeParentMax=0;resizeLast=0;collapsible=1;marginBottom=0;" vertex="1" parent="1">
          <mxGeometry x="210" y="190" width="320" height="60" as="geometry" />
        </mxCell>
        <mxCell id="fkNfoiBsVdpP70R4Vi2L-2" value="+ vulnérabilité (lieux de vie, activité, susc. ind., ...): real" style="text;strokeColor=none;fillColor=none;align=left;verticalAlign=top;spacingLeft=4;spacingRight=4;overflow=hidden;rotatable=0;points=[[0,0.5],[1,0.5]];portConstraint=eastwest;" vertex="1" parent="fkNfoiBsVdpP70R4Vi2L-1">
          <mxGeometry y="26" width="320" height="26" as="geometry" />
        </mxCell>
        <mxCell id="fkNfoiBsVdpP70R4Vi2L-3" value="" style="line;strokeWidth=1;fillColor=none;align=left;verticalAlign=middle;spacingTop=-1;spacingLeft=3;spacingRight=3;rotatable=0;labelPosition=right;points=[];portConstraint=eastwest;" vertex="1" parent="fkNfoiBsVdpP70R4Vi2L-1">
          <mxGeometry y="52" width="320" height="8" as="geometry" />
        </mxCell>
        <mxCell id="fkNfoiBsVdpP70R4Vi2L-10" style="edgeStyle=orthogonalEdgeStyle;rounded=0;orthogonalLoop=1;jettySize=auto;html=1;exitX=0.5;exitY=0;exitDx=0;exitDy=0;entryX=0.25;entryY=1;entryDx=0;entryDy=0;endArrow=block;endFill=0;" edge="1" parent="1" source="fkNfoiBsVdpP70R4Vi2L-4" target="fkNfoiBsVdpP70R4Vi2L-1">
          <mxGeometry relative="1" as="geometry" />
        </mxCell>
        <mxCell id="fkNfoiBsVdpP70R4Vi2L-4" value="Individu" style="swimlane;fontStyle=1;align=center;verticalAlign=top;childLayout=stackLayout;horizontal=1;startSize=26;horizontalStack=0;resizeParent=1;resizeParentMax=0;resizeLast=0;collapsible=1;marginBottom=0;" vertex="1" parent="1">
          <mxGeometry x="40" y="370" width="300" height="128" as="geometry" />
        </mxCell>
        <mxCell id="fkNfoiBsVdpP70R4Vi2L-5" value="+ lieux de vie: char&#xa;+ activités: char&#xa;+ protection individuelle: char&#xa;+ susceptibilité individuelle (génétique, G6PD, ...): ...&#xa;+ connaissance du risque: char&#xa;+ ..." style="text;strokeColor=none;fillColor=none;align=left;verticalAlign=top;spacingLeft=4;spacingRight=4;overflow=hidden;rotatable=0;points=[[0,0.5],[1,0.5]];portConstraint=eastwest;" vertex="1" parent="fkNfoiBsVdpP70R4Vi2L-4">
          <mxGeometry y="26" width="300" height="94" as="geometry" />
        </mxCell>
        <mxCell id="fkNfoiBsVdpP70R4Vi2L-6" value="" style="line;strokeWidth=1;fillColor=none;align=left;verticalAlign=middle;spacingTop=-1;spacingLeft=3;spacingRight=3;rotatable=0;labelPosition=right;points=[];portConstraint=eastwest;" vertex="1" parent="fkNfoiBsVdpP70R4Vi2L-4">
          <mxGeometry y="120" width="300" height="8" as="geometry" />
        </mxCell>
        <mxCell id="fkNfoiBsVdpP70R4Vi2L-11" style="edgeStyle=orthogonalEdgeStyle;rounded=0;orthogonalLoop=1;jettySize=auto;html=1;exitX=0.5;exitY=0;exitDx=0;exitDy=0;entryX=0.75;entryY=1;entryDx=0;entryDy=0;endArrow=block;endFill=0;" edge="1" parent="1" source="fkNfoiBsVdpP70R4Vi2L-7" target="fkNfoiBsVdpP70R4Vi2L-1">
          <mxGeometry relative="1" as="geometry" />
        </mxCell>
        <mxCell id="fkNfoiBsVdpP70R4Vi2L-7" value="Population" style="swimlane;fontStyle=1;align=center;verticalAlign=top;childLayout=stackLayout;horizontal=1;startSize=26;horizontalStack=0;resizeParent=1;resizeParentMax=0;resizeLast=0;collapsible=1;marginBottom=0;" vertex="1" parent="1">
          <mxGeometry x="450" y="370" width="340" height="148" as="geometry" />
        </mxCell>
        <mxCell id="fkNfoiBsVdpP70R4Vi2L-8" value="+ lieux de vie: char&#xa;+ activités (%): real&#xa;+ densité: real&#xa;+ susceptibilité individuelle (génétique, G6PD, ...) (taux): real&#xa;+ connaissance du risque: real&#xa;+ protections individuelles (taux d&#39;utilisation): real&#xa;+..." style="text;strokeColor=none;fillColor=none;align=left;verticalAlign=top;spacingLeft=4;spacingRight=4;overflow=hidden;rotatable=0;points=[[0,0.5],[1,0.5]];portConstraint=eastwest;" vertex="1" parent="fkNfoiBsVdpP70R4Vi2L-7">
          <mxGeometry y="26" width="340" height="114" as="geometry" />
        </mxCell>
        <mxCell id="fkNfoiBsVdpP70R4Vi2L-9" value="" style="line;strokeWidth=1;fillColor=none;align=left;verticalAlign=middle;spacingTop=-1;spacingLeft=3;spacingRight=3;rotatable=0;labelPosition=right;points=[];portConstraint=eastwest;" vertex="1" parent="fkNfoiBsVdpP70R4Vi2L-7">
          <mxGeometry y="140" width="340" height="8" as="geometry" />
        </mxCell>
        <mxCell id="fkNfoiBsVdpP70R4Vi2L-18" style="edgeStyle=orthogonalEdgeStyle;rounded=0;orthogonalLoop=1;jettySize=auto;html=1;exitX=0.5;exitY=0;exitDx=0;exitDy=0;entryX=0.25;entryY=1;entryDx=0;entryDy=0;endArrow=block;endFill=0;" edge="1" parent="1" source="fkNfoiBsVdpP70R4Vi2L-12" target="fkNfoiBsVdpP70R4Vi2L-7">
          <mxGeometry relative="1" as="geometry" />
        </mxCell>
        <mxCell id="fkNfoiBsVdpP70R4Vi2L-12" value="Habitants de la zone transfrontalière" style="swimlane;fontStyle=1;align=center;verticalAlign=top;childLayout=stackLayout;horizontal=1;startSize=26;horizontalStack=0;resizeParent=1;resizeParentMax=0;resizeLast=0;collapsible=1;marginBottom=0;" vertex="1" parent="1">
          <mxGeometry x="360" y="580" width="230" height="58" as="geometry" />
        </mxCell>
        <mxCell id="fkNfoiBsVdpP70R4Vi2L-13" value="+ ..." style="text;strokeColor=none;fillColor=none;align=left;verticalAlign=top;spacingLeft=4;spacingRight=4;overflow=hidden;rotatable=0;points=[[0,0.5],[1,0.5]];portConstraint=eastwest;" vertex="1" parent="fkNfoiBsVdpP70R4Vi2L-12">
          <mxGeometry y="26" width="230" height="24" as="geometry" />
        </mxCell>
        <mxCell id="fkNfoiBsVdpP70R4Vi2L-14" value="" style="line;strokeWidth=1;fillColor=none;align=left;verticalAlign=middle;spacingTop=-1;spacingLeft=3;spacingRight=3;rotatable=0;labelPosition=right;points=[];portConstraint=eastwest;" vertex="1" parent="fkNfoiBsVdpP70R4Vi2L-12">
          <mxGeometry y="50" width="230" height="8" as="geometry" />
        </mxCell>
        <mxCell id="fkNfoiBsVdpP70R4Vi2L-19" style="edgeStyle=orthogonalEdgeStyle;rounded=0;orthogonalLoop=1;jettySize=auto;html=1;exitX=0.5;exitY=0;exitDx=0;exitDy=0;entryX=0.75;entryY=1;entryDx=0;entryDy=0;endArrow=block;endFill=0;" edge="1" parent="1" source="fkNfoiBsVdpP70R4Vi2L-15" target="fkNfoiBsVdpP70R4Vi2L-7">
          <mxGeometry relative="1" as="geometry" />
        </mxCell>
        <mxCell id="fkNfoiBsVdpP70R4Vi2L-15" value="Pop. d&#39;orpailleurs" style="swimlane;fontStyle=1;align=center;verticalAlign=top;childLayout=stackLayout;horizontal=1;startSize=26;horizontalStack=0;resizeParent=1;resizeParentMax=0;resizeLast=0;collapsible=1;marginBottom=0;" vertex="1" parent="1">
          <mxGeometry x="670" y="600" width="130" height="58" as="geometry" />
        </mxCell>
        <mxCell id="fkNfoiBsVdpP70R4Vi2L-16" value="+ ..." style="text;strokeColor=none;fillColor=none;align=left;verticalAlign=top;spacingLeft=4;spacingRight=4;overflow=hidden;rotatable=0;points=[[0,0.5],[1,0.5]];portConstraint=eastwest;" vertex="1" parent="fkNfoiBsVdpP70R4Vi2L-15">
          <mxGeometry y="26" width="130" height="24" as="geometry" />
        </mxCell>
        <mxCell id="fkNfoiBsVdpP70R4Vi2L-17" value="" style="line;strokeWidth=1;fillColor=none;align=left;verticalAlign=middle;spacingTop=-1;spacingLeft=3;spacingRight=3;rotatable=0;labelPosition=right;points=[];portConstraint=eastwest;" vertex="1" parent="fkNfoiBsVdpP70R4Vi2L-15">
          <mxGeometry y="50" width="130" height="8" as="geometry" />
        </mxCell>
        <mxCell id="fkNfoiBsVdpP70R4Vi2L-20" style="edgeStyle=orthogonalEdgeStyle;rounded=0;orthogonalLoop=1;jettySize=auto;html=1;exitX=1;exitY=0.5;exitDx=0;exitDy=0;entryX=0;entryY=0.5;entryDx=0;entryDy=0;endArrow=diamond;endFill=0;" edge="1" parent="1" source="fkNfoiBsVdpP70R4Vi2L-5" target="fkNfoiBsVdpP70R4Vi2L-8">
          <mxGeometry relative="1" as="geometry" />
        </mxCell>
        <mxCell id="fkNfoiBsVdpP70R4Vi2L-24" style="edgeStyle=orthogonalEdgeStyle;rounded=0;orthogonalLoop=1;jettySize=auto;html=1;exitX=0.5;exitY=0;exitDx=0;exitDy=0;entryX=0.5;entryY=1;entryDx=0;entryDy=0;endArrow=block;endFill=0;" edge="1" parent="1" source="fkNfoiBsVdpP70R4Vi2L-21" target="fkNfoiBsVdpP70R4Vi2L-4">
          <mxGeometry relative="1" as="geometry" />
        </mxCell>
        <mxCell id="fkNfoiBsVdpP70R4Vi2L-21" value="Orpailleur" style="swimlane;fontStyle=1;align=center;verticalAlign=top;childLayout=stackLayout;horizontal=1;startSize=26;horizontalStack=0;resizeParent=1;resizeParentMax=0;resizeLast=0;collapsible=1;marginBottom=0;" vertex="1" parent="1">
          <mxGeometry x="80" y="670" width="130" height="58" as="geometry" />
        </mxCell>
        <mxCell id="fkNfoiBsVdpP70R4Vi2L-22" value="+ ..." style="text;strokeColor=none;fillColor=none;align=left;verticalAlign=top;spacingLeft=4;spacingRight=4;overflow=hidden;rotatable=0;points=[[0,0.5],[1,0.5]];portConstraint=eastwest;" vertex="1" parent="fkNfoiBsVdpP70R4Vi2L-21">
          <mxGeometry y="26" width="130" height="24" as="geometry" />
        </mxCell>
        <mxCell id="fkNfoiBsVdpP70R4Vi2L-23" value="" style="line;strokeWidth=1;fillColor=none;align=left;verticalAlign=middle;spacingTop=-1;spacingLeft=3;spacingRight=3;rotatable=0;labelPosition=right;points=[];portConstraint=eastwest;" vertex="1" parent="fkNfoiBsVdpP70R4Vi2L-21">
          <mxGeometry y="50" width="130" height="8" as="geometry" />
        </mxCell>
        <mxCell id="fkNfoiBsVdpP70R4Vi2L-25" style="edgeStyle=orthogonalEdgeStyle;rounded=0;orthogonalLoop=1;jettySize=auto;html=1;entryX=0.5;entryY=1;entryDx=0;entryDy=0;endArrow=diamond;endFill=0;" edge="1" parent="1" source="fkNfoiBsVdpP70R4Vi2L-22" target="fkNfoiBsVdpP70R4Vi2L-15">
          <mxGeometry relative="1" as="geometry" />
        </mxCell>
        <mxCell id="fkNfoiBsVdpP70R4Vi2L-28" value="Pop. d&#39;orpailleurs légaux" style="swimlane;fontStyle=1;align=center;verticalAlign=top;childLayout=stackLayout;horizontal=1;startSize=26;horizontalStack=0;resizeParent=1;resizeParentMax=0;resizeLast=0;collapsible=1;marginBottom=0;" vertex="1" parent="1">
          <mxGeometry x="450" y="810" width="160" height="58" as="geometry" />
        </mxCell>
        <mxCell id="fkNfoiBsVdpP70R4Vi2L-29" value="+ ..." style="text;strokeColor=none;fillColor=none;align=left;verticalAlign=top;spacingLeft=4;spacingRight=4;overflow=hidden;rotatable=0;points=[[0,0.5],[1,0.5]];portConstraint=eastwest;" vertex="1" parent="fkNfoiBsVdpP70R4Vi2L-28">
          <mxGeometry y="26" width="160" height="24" as="geometry" />
        </mxCell>
        <mxCell id="fkNfoiBsVdpP70R4Vi2L-30" value="" style="line;strokeWidth=1;fillColor=none;align=left;verticalAlign=middle;spacingTop=-1;spacingLeft=3;spacingRight=3;rotatable=0;labelPosition=right;points=[];portConstraint=eastwest;" vertex="1" parent="fkNfoiBsVdpP70R4Vi2L-28">
          <mxGeometry y="50" width="160" height="8" as="geometry" />
        </mxCell>
        <mxCell id="fkNfoiBsVdpP70R4Vi2L-32" value="Pop. d&#39;orpailleurs &quot;illégaux&quot;" style="swimlane;fontStyle=1;align=center;verticalAlign=top;childLayout=stackLayout;horizontal=1;startSize=26;horizontalStack=0;resizeParent=1;resizeParentMax=0;resizeLast=0;collapsible=1;marginBottom=0;" vertex="1" parent="1">
          <mxGeometry x="640" y="810" width="170" height="58" as="geometry" />
        </mxCell>
        <mxCell id="fkNfoiBsVdpP70R4Vi2L-33" value="+ ..." style="text;strokeColor=none;fillColor=none;align=left;verticalAlign=top;spacingLeft=4;spacingRight=4;overflow=hidden;rotatable=0;points=[[0,0.5],[1,0.5]];portConstraint=eastwest;" vertex="1" parent="fkNfoiBsVdpP70R4Vi2L-32">
          <mxGeometry y="26" width="170" height="24" as="geometry" />
        </mxCell>
        <mxCell id="fkNfoiBsVdpP70R4Vi2L-34" value="" style="line;strokeWidth=1;fillColor=none;align=left;verticalAlign=middle;spacingTop=-1;spacingLeft=3;spacingRight=3;rotatable=0;labelPosition=right;points=[];portConstraint=eastwest;" vertex="1" parent="fkNfoiBsVdpP70R4Vi2L-32">
          <mxGeometry y="50" width="170" height="8" as="geometry" />
        </mxCell>
      </root>
    </mxGraphModel>
  </diagram>
</mxfile>
